<?xml version="1.0" encoding="UTF-8"?>
<svg xmlns="http://www.w3.org/2000/svg" xmlns:xlink="http://www.w3.org/1999/xlink" width="32px" height="32px" viewBox="0 0 32 32" version="1.1">
<defs>
<filter id="alpha" filterUnits="objectBoundingBox" x="0%" y="0%" width="100%" height="100%">
  <feColorMatrix type="matrix" in="SourceGraphic" values="0 0 0 0 1 0 0 0 0 1 0 0 0 0 1 0 0 0 1 0"/>
</filter>
<mask id="mask0">
  <g filter="url(#alpha)">
<rect x="0" y="0" width="32" height="32" style="fill:rgb(0%,0%,0%);fill-opacity:0.75;stroke:none;"/>
  </g>
</mask>
<mask id="mask1">
  <g filter="url(#alpha)">
<rect x="0" y="0" width="32" height="32" style="fill:rgb(0%,0%,0%);fill-opacity:0.1;stroke:none;"/>
  </g>
</mask>
<clipPath id="clip2">
  <rect x="0" y="0" width="32" height="32"/>
</clipPath>
<g id="surface7" clip-path="url(#clip2)">
<path style=" stroke:none;fill-rule:nonzero;fill:rgb(12.941177%,12.941177%,12.941177%);fill-opacity:1;" d="M 30 30 L 2 30 L 2 2 L 30 2 Z M 30 30 "/>
</g>
<clipPath id="clip1">
  <rect x="0" y="0" width="32" height="32"/>
</clipPath>
<g id="surface9" clip-path="url(#clip1)">
<use xlink:href="#surface7" mask="url(#mask1)"/>
<path style=" stroke:none;fill-rule:nonzero;fill:rgb(12.941177%,12.941177%,12.941177%);fill-opacity:1;" d="M 4 2 L 4 4 L 6 4 L 6 2 Z M 8 2 L 8 4 L 10 4 L 10 2 Z M 12 2 L 12 4 L 14 4 L 14 2 Z M 16 2 L 16 4 L 18 4 L 18 2 Z M 20 2 L 20 4 L 22 4 L 22 2 Z M 24 2 L 24 4 L 26 4 L 26 2 Z M 28 2 L 28 4 L 30 4 L 30 2 Z M 2 28 L 2 30 L 4 30 L 4 28 Z M 6 28 L 6 30 L 8 30 L 8 28 Z M 10 28 L 10 30 L 12 30 L 12 28 Z M 14 28 L 14 30 L 16 30 L 16 28 Z M 18 28 L 18 30 L 20 30 L 20 28 Z M 22 28 L 22 30 L 24 30 L 24 28 Z M 26 28 L 26 30 L 28 30 L 28 28 Z M 4 4 L 2 4 L 2 6 L 4 6 Z M 4 8 L 2 8 L 2 10 L 4 10 Z M 4 12 L 2 12 L 2 14 L 4 14 Z M 4 16 L 2 16 L 2 18 L 4 18 Z M 4 20 L 2 20 L 2 22 L 4 22 Z M 4 24 L 2 24 L 2 26 L 4 26 Z M 30 6 L 28 6 L 28 8 L 30 8 Z M 30 10 L 28 10 L 28 12 L 30 12 Z M 30 14 L 28 14 L 28 16 L 30 16 Z M 30 18 L 28 18 L 28 20 L 30 20 Z M 30 22 L 28 22 L 28 24 L 30 24 Z M 30 26 L 28 26 L 28 28 L 30 28 Z M 30 26 "/>
</g>
</defs>
<g id="surface1">
<use xlink:href="#surface9" mask="url(#mask0)"/>
<path style=" stroke:none;fill-rule:nonzero;fill:rgb(60.000002%,43.529412%,0%);fill-opacity:1;" d="M 18.046875 14.613281 L 18.046875 14 L 16 14 L 16 20 L 19.953125 20 L 21.296875 18.65625 L 22 18.65625 L 23.25 19.90625 L 23.25 20.613281 L 20 23.863281 L 19.296875 23.863281 L 18.046875 22.613281 L 18.046875 22 L 15 22 L 14 21 L 14 14 L 12.457031 14 L 11.226562 15.226562 L 10.523438 15.226562 L 8.523438 13.226562 L 8.523438 12.523438 L 13.023438 8.023438 L 13.726562 8.023438 L 15.726562 10.023438 L 15.726562 10.726562 L 14.457031 12 L 19.953125 12 L 21.296875 10.65625 L 22 10.65625 L 23.25 11.90625 L 23.25 12.613281 L 20 15.863281 L 19.296875 15.863281 Z M 18.046875 14.613281 "/>
</g>
</svg>
