<svg xmlns="http://www.w3.org/2000/svg" id="Vrstva_1" data-name="Vrstva 1" viewBox="42.7 0 70.25 42.82">
	<path d="M59.0317.2476c6.9052,1.7068,16.0205,12.5194,24.4072,41.0431.2143.7288.8803,1.2293,1.6354,1.2293h26.9488c.6414,0,1.0835-.6473.8565-1.2512C101.1051,9.9587,88.2085,0,79.1641,0h-20.1218c-.0766,0-.1485.0366-.1575.0977-.0108.0729.0351.1222.1469.1498Z" fill="#C35214"/>
	<path d="M66.1959,12.8162c-1.6024,2.3848-3.0538,5.6048-4.3457,9.1993-.1416.394-.5134.6607-.9321.6607h-16.5736c-.5126,0-.8837-.5025-.7353-.9932,3.1558-10.4353,7.4674-16.6969,12.9167-16.6969,2.85,0,6.37,1.8501,9.67,7.5601.05.0801.05.1899,0,.27Z" fill="#C35214"/>
	<path d="M46.015,33.7005h1.8378c.9793,0,1.7318-.8243,1.7318-1.8601,0-1.0582-.7526-1.8766-1.7318-1.8766h-1.8378c-.1338,0-.2228.0892-.2228.2231v3.2906c0,.1338.0889.2231.2228.2231ZM42.7021,42.0749v-14.7005c0-.2443.2005-.445.445-.445h4.7391c2.8555,0,4.8721,2.0433,4.8721,4.9109,0,2.8511-2.0165,4.8945-4.8721,4.8945h-1.8713c-.1338,0-.2228.0892-.2228.2228v5.1173c0,.2443-.1999.445-.4453.445h-2.1997c-.2445,0-.445-.2008-.445-.445Z" fill="#C35214"/>
	<path d="M56.8499,36.3171h2.3718c.1338,0,.2451-.1168.2005-.2897l-1.2196-4.7498c-.0502-.1997-.2892-.1997-.3561,0l-1.1973,4.7498c-.0446.1729.0613.2897.2008.2897ZM51.8995,41.9243l4.2436-14.6559c.0661-.2275.2222-.3391.4227-.3391h2.9676c.2008,0,.3622.1115.4291.3391l4.2093,14.6559c.0669.2666-.0725.5956-.4068.5956h-2.4108c-.1999,0-.3561-.1115-.423-.3346l-.7793-2.6164c-.0502-.1896-.1171-.3009-.3067-.3009h-3.6748c-.1614,0-.2284.0722-.273.2451l-.7462,2.6721c-.0669.2231-.2222.3346-.4227.3346h-2.4052c-.3513,0-.4955-.329-.4238-.5956Z" fill="#C35214"/>
	<path d="M65.6351,40.671c-.8731-1.3062-1.1187-3.2736-1.1187-5.9463s.2328-4.6448,1.1187-5.9463c.8852-1.3004,2.3333-2.1446,4.41-2.1446,3.0794,0,5.251,1.8657,5.251,5.1229,0,.2454-.2008.4453-.4459.4453h-2.2658c-.2454,0-.462-.1999-.462-.4453,0-1.1527-.7626-2.0319-2.0773-2.0319-.902,0-1.6167.371-1.9817,1.1912-.3536.7948-.3734,2.1992-.3734,3.8087s.0053,3.0179.3734,3.8087c.3781.8184,1.0796,1.1912,1.9817,1.1912,1.3147,0,2.0773-.841,2.0773-2.0319,0-.2454.2167-.4461.462-.4461h2.2658c.2451,0,.4459.2008.4459.4461,0,3.2234-2.1325,5.1229-5.251,5.1229-2.0768,0-3.5398-.8427-4.41-2.1446Z" fill="#C35214"/>
</svg>