<?xml version="1.0" encoding="UTF-8"?>
<svg xmlns="http://www.w3.org/2000/svg" xmlns:xlink="http://www.w3.org/1999/xlink" width="32px" height="32px" viewBox="0 0 32 32" version="1.1">
<defs>
<filter id="alpha" filterUnits="objectBoundingBox" x="0%" y="0%" width="100%" height="100%">
  <feColorMatrix type="matrix" in="SourceGraphic" values="0 0 0 0 1 0 0 0 0 1 0 0 0 0 1 0 0 0 1 0"/>
</filter>
<mask id="mask0">
  <g filter="url(#alpha)">
<rect x="0" y="0" width="32" height="32" style="fill:rgb(0%,0%,0%);fill-opacity:0.1;stroke:none;"/>
  </g>
</mask>
<clipPath id="clip1">
  <rect x="0" y="0" width="32" height="32"/>
</clipPath>
<g id="surface6" clip-path="url(#clip1)">
<path style=" stroke:none;fill-rule:nonzero;fill:rgb(12.941177%,12.941177%,12.941177%);fill-opacity:1;" d="M 29 12 C 29 16.96875 24.96875 21 20 21 C 15.03125 21 11 16.96875 11 12 C 11 7.03125 15.03125 3 20 3 C 24.96875 3 29 7.03125 29 12 Z M 29 12 "/>
</g>
</defs>
<g id="surface1">
<use xlink:href="#surface6" mask="url(#mask0)"/>
<path style=" stroke:none;fill-rule:nonzero;fill:rgb(12.941177%,12.941177%,12.941177%);fill-opacity:1;" d="M 20 2 C 14.480469 2.007812 10.007812 6.480469 10 12 C 10.011719 14.320312 10.832031 16.558594 12.324219 18.335938 L 2.355469 28.304688 L 3.769531 29.71875 L 13.746094 19.738281 C 15.507812 21.191406 17.71875 21.992188 20 22 C 25.523438 22 30 17.523438 30 12 C 30 6.476562 25.523438 2 20 2 Z M 20 20 C 15.582031 20 12 16.417969 12 12 C 12 7.582031 15.582031 4 20 4 C 24.417969 4 28 7.582031 28 12 C 28 16.417969 24.417969 20 20 20 Z M 20 20 "/>
</g>
</svg>
